<svg width="53" height="53" viewBox="0 0 53 53" fill="none" xmlns="http://www.w3.org/2000/svg">
<mask id="mask0_3157_1600" style="mask-type:alpha" maskUnits="userSpaceOnUse" x="0" y="0" width="53" height="53">
<rect width="53" height="53" fill="#D9D9D9"/>
</mask>
<g mask="url(#mask0_3157_1600)">
<path d="M0.552002 50.2399V6.75269C0.552002 5.65136 0.942012 4.7107 1.72203 3.93072C2.50202 3.15073 3.44267 2.76074 4.54401 2.76074H19.7475C20.8488 2.76074 21.7895 3.15073 22.5695 3.93072C23.3495 4.7107 23.7394 5.65136 23.7394 6.75269V50.2398H20.4271V45.8231H3.86445V50.2398L0.552002 50.2399ZM34.3565 50.2399V36.5567L39.1044 31.9872L37.5628 24.6528C36.1415 26.5922 34.498 28.0043 32.6323 28.889C30.7665 29.7738 28.8357 30.2516 26.8397 30.3223V27.0099C28.6913 26.925 30.3391 26.4805 31.783 25.6765C33.2269 24.8724 34.4542 23.6479 35.4649 22.0029L37.3122 19.0004C37.8502 18.1086 38.6033 17.536 39.5715 17.2826C40.5398 17.0293 41.4953 17.105 42.4381 17.5099L52.4478 21.7099V31.469H49.1354V23.914L44.3958 21.9307L50.0696 50.2399H46.6892L42.9605 34.068L37.6689 39.0835V50.2398L34.3565 50.2399ZM3.86445 42.5107H20.4271V6.75264C20.4271 6.55444 20.3633 6.39163 20.2359 6.26421C20.1085 6.13679 19.9457 6.07308 19.7475 6.07308H4.54401C4.34581 6.07308 4.183 6.13679 4.05558 6.26421C3.92819 6.39167 3.8645 6.55449 3.8645 6.75269L3.86445 42.5107ZM8.96067 28.4962L16.3076 24.2919L8.96067 20.0876V28.4962ZM37.5416 15.1189C36.4119 15.1189 35.4501 14.7218 34.6559 13.9276C33.8617 13.1335 33.4647 12.1716 33.4647 11.0419C33.4647 9.9123 33.8617 8.95041 34.6559 8.15625C35.4501 7.3621 36.4119 6.96502 37.5416 6.96502C38.6712 6.96502 39.6331 7.3621 40.4273 8.15625C41.2214 8.95041 41.6185 9.9123 41.6185 11.0419C41.6185 12.1716 41.2214 13.1335 40.4273 13.9276C39.6331 14.7218 38.6712 15.1189 37.5416 15.1189Z" fill="url(#paint0_linear_3157_1600)"/>
</g>
<defs>
<linearGradient id="paint0_linear_3157_1600" x1="-21.9572" y1="26.4619" x2="64.3088" y2="26.2442" gradientUnits="userSpaceOnUse">
<stop offset="0.317708" stop-color="#E43425"/>
<stop offset="0.71875" stop-color="#441FD8"/>
<stop offset="1" stop-color="#0A26B8"/>
</linearGradient>
</defs>
</svg>
