<svg width="48" height="48" viewBox="0 0 48 48" fill="none" xmlns="http://www.w3.org/2000/svg">
<path d="M24.002 47.3337C20.7743 47.3337 17.7409 46.7208 14.902 45.495C12.0631 44.2708 9.5937 42.6087 7.4937 40.5087C5.3937 38.4087 3.73159 35.9392 2.50737 33.1003C1.28159 30.2614 0.668701 27.2281 0.668701 24.0003C0.668701 20.7725 1.28159 17.7392 2.50737 14.9003C3.73159 12.0614 5.3937 9.59199 7.4937 7.49199C9.5937 5.39199 12.0631 3.7291 14.902 2.50333C17.7409 1.2791 20.7743 0.666992 24.002 0.666992C27.2298 0.666992 30.2631 1.2791 33.102 2.50333C35.9409 3.7291 38.4104 5.39199 40.5104 7.49199C42.6104 9.59199 44.2725 12.0614 45.4967 14.9003C46.7225 17.7392 47.3354 20.7725 47.3354 24.0003C47.3354 27.2281 46.7225 30.2614 45.4967 33.1003C44.2725 35.9392 42.6104 38.4087 40.5104 40.5087C38.4104 42.6087 35.9409 44.2708 33.102 45.495C30.2631 46.7208 27.2298 47.3337 24.002 47.3337ZM21.6687 42.5503V38.0003C20.3854 38.0003 19.2871 37.5438 18.374 36.6307C17.4594 35.716 17.002 34.617 17.002 33.3337V31.0003L5.80203 19.8003C5.68537 20.5003 5.57803 21.2003 5.48003 21.9003C5.38359 22.6003 5.33537 23.3003 5.33537 24.0003C5.33537 28.7059 6.88159 32.8281 9.97404 36.367C13.0649 39.9059 16.9631 41.967 21.6687 42.5503ZM37.7687 36.6003C38.5465 35.7448 39.2465 34.8208 39.8687 33.8283C40.4909 32.8374 41.0066 31.8069 41.4157 30.7367C41.8233 29.668 42.1344 28.5698 42.349 27.442C42.5621 26.3142 42.6687 25.167 42.6687 24.0003C42.6687 20.1892 41.6094 16.7087 39.4907 13.5587C37.3705 10.4087 34.5409 8.13366 31.002 6.73366V7.66699C31.002 8.95033 30.5455 10.0485 29.6324 10.9617C28.7177 11.8763 27.6187 12.3337 26.3354 12.3337H21.6687V17.0003C21.6687 17.6614 21.4455 18.2152 20.999 18.6617C20.551 19.1097 19.9965 19.3337 19.3354 19.3337H14.6687V24.0003H28.6687C29.3298 24.0003 29.8844 24.2235 30.3324 24.67C30.7788 25.118 31.002 25.6726 31.002 26.3337V33.3337H33.3354C34.3465 33.3337 35.2604 33.6347 36.077 34.2367C36.8937 34.8402 37.4576 35.6281 37.7687 36.6003Z" fill="url(#paint0_linear_3159_4028)"/>
<defs>
<linearGradient id="paint0_linear_3159_4028" x1="-19.5725" y1="23.9626" x2="58.0013" y2="23.7835" gradientUnits="userSpaceOnUse">
<stop offset="0.317708" stop-color="#E43425"/>
<stop offset="0.71875" stop-color="#441FD8"/>
<stop offset="1" stop-color="#0A26B8"/>
</linearGradient>
</defs>
</svg>
