<svg width="56" height="56" viewBox="0 0 56 56" fill="none" xmlns="http://www.w3.org/2000/svg">
<mask id="mask0_3157_1549" style="mask-type:alpha" maskUnits="userSpaceOnUse" x="0" y="0" width="56" height="56">
<rect width="56" height="56" fill="#D9D9D9"/>
</mask>
<g mask="url(#mask0_3157_1549)">
<path d="M2 52.33V8.39364C2 7.18539 2.43021 6.15105 3.29063 5.29063C4.15105 4.43021 5.18539 4 6.39364 4H21.7714C22.9796 4 24.0139 4.43021 24.8744 5.29063C25.7348 6.15105 26.165 7.18539 26.165 8.39364V52.33H21.7714V47.9364H6.39364V52.33H2ZM36.0507 52.33V37.831L40.7738 33.3275L39.6205 27.6158C38.1926 29.2634 36.4626 30.4991 34.4305 31.3229C32.3985 32.1467 30.3756 32.5586 28.3618 32.5586V28.165C30.1193 28.165 31.8218 27.7439 33.4694 26.9018C35.117 26.0597 36.4717 24.7782 37.5335 23.0574L39.1811 20.3663C39.7304 19.451 40.5359 18.8285 41.5976 18.499C42.6594 18.1695 43.6663 18.2061 44.6183 18.6088L54.7236 22.8926V33.657H50.33V25.8034L47.1995 24.4853L52.5268 52.33H48.0233L44.6732 36.6228L40.4443 40.577V52.33H36.0507ZM6.39364 43.5427H21.7714V8.39364H6.39364V43.5427ZM10.7873 30.3618L18.4761 25.9682L10.7873 21.5745V30.3618ZM39.3459 17.1809C38.1377 17.1809 37.1033 16.7507 36.2429 15.8903C35.3825 15.0299 34.9523 13.9955 34.9523 12.7873C34.9523 11.579 35.3825 10.5447 36.2429 9.68427C37.1033 8.82385 38.1377 8.39364 39.3459 8.39364C40.5542 8.39364 41.5885 8.82385 42.4489 9.68427C43.3093 10.5447 43.7395 11.579 43.7395 12.7873C43.7395 13.9955 43.3093 15.0299 42.4489 15.8903C41.5885 16.7507 40.5542 17.1809 39.3459 17.1809Z" fill="url(#paint0_linear_3157_1549)"/>
</g>
<defs>
<linearGradient id="paint0_linear_3157_1549" x1="-20.8683" y1="28.126" x2="66.7739" y2="27.9052" gradientUnits="userSpaceOnUse">
<stop offset="0.317708" stop-color="#E43425"/>
<stop offset="0.71875" stop-color="#441FD8"/>
<stop offset="1" stop-color="#0A26B8"/>
</linearGradient>
</defs>
</svg>
