<svg width="52" height="36" viewBox="0 0 52 36" fill="none" xmlns="http://www.w3.org/2000/svg">
<path d="M25.9999 28.333C28.9166 28.333 31.3961 27.3126 33.4386 25.2717C35.4795 23.2292 36.4999 20.7497 36.4999 17.833C36.4999 14.9163 35.4795 12.4368 33.4386 10.3943C31.3961 8.35345 28.9166 7.33301 25.9999 7.33301C23.0833 7.33301 20.6037 8.35345 18.5613 10.3943C16.5204 12.4368 15.4999 14.9163 15.4999 17.833C15.4999 20.7497 16.5204 23.2292 18.5613 25.2717C20.6037 27.3126 23.0833 28.333 25.9999 28.333ZM25.9999 24.133C24.2499 24.133 22.7628 23.5201 21.5386 22.2943C20.3128 21.0701 19.6999 19.583 19.6999 17.833C19.6999 16.083 20.3128 14.5951 21.5386 13.3693C22.7628 12.1451 24.2499 11.533 25.9999 11.533C27.7499 11.533 29.2378 12.1451 30.4636 13.3693C31.6878 14.5951 32.2999 16.083 32.2999 17.833C32.2999 19.583 31.6878 21.0701 30.4636 22.2943C29.2378 23.5201 27.7499 24.133 25.9999 24.133ZM25.9999 35.333C20.3221 35.333 15.1499 33.7479 10.4833 30.5777C5.81659 27.409 2.43325 23.1608 0.333252 17.833C2.43325 12.5052 5.81659 8.25623 10.4833 5.08601C15.1499 1.91734 20.3221 0.333008 25.9999 0.333008C31.6777 0.333008 36.8499 1.91734 41.5166 5.08601C46.1833 8.25623 49.5666 12.5052 51.6666 17.833C49.5666 23.1608 46.1833 27.409 41.5166 30.5777C36.8499 33.7479 31.6777 35.333 25.9999 35.333ZM25.9999 30.6663C30.3944 30.6663 34.4295 29.509 38.1053 27.1943C41.7795 24.8812 44.5888 21.7608 46.5332 17.833C44.5888 13.9052 41.7795 10.784 38.1053 8.46934C34.4295 6.15623 30.3944 4.99967 25.9999 4.99967C21.6055 4.99967 17.5704 6.15623 13.8946 8.46934C10.2204 10.784 7.41103 13.9052 5.46659 17.833C7.41103 21.7608 10.2204 24.8812 13.8946 27.1943C17.5704 29.509 21.6055 30.6663 25.9999 30.6663Z" fill="url(#paint0_linear_3159_4021)"/>
<defs>
<linearGradient id="paint0_linear_3159_4021" x1="-21.932" y1="17.8047" x2="63.3986" y2="17.5158" gradientUnits="userSpaceOnUse">
<stop offset="0.317708" stop-color="#E43425"/>
<stop offset="0.71875" stop-color="#441FD8"/>
<stop offset="1" stop-color="#0A26B8"/>
</linearGradient>
</defs>
</svg>
