<svg width="53" height="53" viewBox="0 0 53 53" fill="none" xmlns="http://www.w3.org/2000/svg">
<mask id="mask0_3157_1616" style="mask-type:alpha" maskUnits="userSpaceOnUse" x="0" y="0" width="53" height="53">
<rect width="53" height="53" fill="#D9D9D9"/>
</mask>
<g mask="url(#mask0_3157_1616)">
<path d="M37.7754 46.8208L37.3253 44.1878C36.6854 44.0037 36.1333 43.7857 35.6689 43.5338C35.2046 43.2818 34.7488 42.9449 34.3014 42.523L31.7789 43.3893L30.0803 40.612L32.1102 38.8709C31.9516 38.2593 31.8723 37.6393 31.8723 37.0107C31.8723 36.3822 31.9516 35.7622 32.1102 35.1506L30.0803 33.4094L31.7789 30.6321L34.3014 31.4985C34.7488 31.0625 35.2046 30.722 35.6689 30.4771C36.1333 30.2322 36.6854 30.0177 37.3253 29.8337L37.7754 27.2007H41.0878L41.5379 29.8337C42.1778 30.0177 42.7299 30.2322 43.1942 30.4771C43.6585 30.722 44.1143 31.0625 44.5617 31.4985L47.0843 30.6321L48.7829 33.4094L46.753 35.1506C46.9115 35.7622 46.9908 36.3822 46.9908 37.0107C46.9908 37.6393 46.9115 38.2593 46.753 38.8709L48.7829 40.612L47.0843 43.3893L44.5617 42.523C44.1143 42.9449 43.6585 43.2818 43.1942 43.5338C42.7299 43.7857 42.1778 44.0037 41.5379 44.1878L41.0878 46.8208H37.7754ZM39.4316 41.5973C40.6886 41.5973 41.7673 41.1471 42.6677 40.2468C43.568 39.3465 44.0181 38.2678 44.0181 37.0107C44.0181 35.7537 43.568 34.675 42.6677 33.7746C41.7673 32.8743 40.6886 32.4242 39.4316 32.4242C38.1745 32.4242 37.0958 32.8743 36.1955 33.7746C35.2952 34.675 34.845 35.7537 34.845 37.0107C34.845 38.2678 35.2952 39.3465 36.1955 40.2468C37.0958 41.1471 38.1745 41.5973 39.4316 41.5973ZM8.83344 39.75V13.2499V22.8945V22.0833V39.75ZM9.513 43.0624C8.3975 43.0624 7.45329 42.6759 6.68037 41.903C5.90745 41.1301 5.521 40.1859 5.521 39.0704V13.9295C5.521 12.814 5.90745 11.8698 6.68037 11.0969C7.45329 10.324 8.3975 9.9375 9.513 9.9375H21.6375L26.0541 14.3542H43.4872C44.6027 14.3542 45.5469 14.7406 46.3198 15.5135C47.0928 16.2865 47.4792 17.2307 47.4792 18.3462V24.4954C46.9725 24.1444 46.4466 23.84 45.9015 23.5824C45.3566 23.3248 44.7783 23.0955 44.1668 22.8945V18.3462C44.1668 18.148 44.1031 17.9852 43.9757 17.8577C43.8482 17.7303 43.6854 17.6666 43.4872 17.6666H24.6995L20.2828 13.2499H9.513C9.3148 13.2499 9.15199 13.3137 9.02457 13.4411C8.89715 13.5685 8.83344 13.7313 8.83344 13.9295V39.0704C8.83344 39.2686 8.89715 39.4314 9.02457 39.5588C9.15199 39.6862 9.3148 39.75 9.513 39.75H24.776C24.8722 40.3388 25.0081 40.9058 25.1836 41.4508C25.3591 41.9957 25.57 42.5329 25.8164 43.0624H9.513Z" fill="url(#paint0_linear_3157_1616)"/>
</g>
<defs>
<linearGradient id="paint0_linear_3157_1616" x1="-13.2434" y1="28.3493" x2="58.6706" y2="28.1546" gradientUnits="userSpaceOnUse">
<stop offset="0.317708" stop-color="#E43425"/>
<stop offset="0.71875" stop-color="#441FD8"/>
<stop offset="1" stop-color="#0A26B8"/>
</linearGradient>
</defs>
</svg>
